<?xml version="1.0" encoding="utf-8"?>
<!-- Generator: Adobe Illustrator 24.3.0, SVG Export Plug-In . SVG Version: 6.00 Build 0)  -->
<svg version="1.1" id="Layer_1" xmlns="http://www.w3.org/2000/svg" xmlns:xlink="http://www.w3.org/1999/xlink" x="0px" y="0px"
	 viewBox="0 0 100 100" style="enable-background:new 0 0 100 100;" xml:space="preserve">
<style type="text/css">
	.st0{fill:#8FD0DB;}
</style>
<g>
	<path class="st0" d="M43.81,59.28v24.75c0,5.12-4.16,9.28-9.28,9.28H9.78c-5.12,0-9.28-4.16-9.28-9.28V37.62
		c0-17.09,13.85-30.94,30.94-30.94h1.55c2.57,0,4.64,2.07,4.64,4.64v9.28c0,2.57-2.07,4.64-4.64,4.64h-1.55
		c-6.82,0-12.38,5.55-12.38,12.38V50h15.47C39.66,50,43.81,54.16,43.81,59.28z M99.5,59.28v24.75c0,5.12-4.16,9.28-9.28,9.28H65.47
		c-5.12,0-9.28-4.16-9.28-9.28V37.62c0-17.09,13.85-30.94,30.94-30.94h1.55c2.57,0,4.64,2.07,4.64,4.64v9.28
		c0,2.57-2.07,4.64-4.64,4.64h-1.55c-6.82,0-12.38,5.55-12.38,12.38V50h15.47C95.34,50,99.5,54.16,99.5,59.28z"/>
</g>
</svg>
