<?xml version="1.0" encoding="utf-8"?>
<!-- Generator: Adobe Illustrator 24.3.0, SVG Export Plug-In . SVG Version: 6.00 Build 0)  -->
<svg version="1.1" id="Layer_1" xmlns="http://www.w3.org/2000/svg" xmlns:xlink="http://www.w3.org/1999/xlink" x="0px" y="0px"
	 viewBox="0 0 16 16" style="enable-background:new 0 0 16 16;" xml:space="preserve">
<style type="text/css">
	.st0{fill:#787878;}
</style>
<path class="st0" d="M15.67,14.55l-5.15-5.16L10.5,9.4c1.94-2.55,1.45-6.18-1.1-8.12s-6.18-1.45-8.12,1.1s-1.45,6.18,1.1,8.12
	c2.07,1.58,4.95,1.58,7.02,0L9.4,10.51l5.15,5.16c0.31,0.31,0.81,0.31,1.12,0S15.98,14.86,15.67,14.55L15.67,14.55L15.67,14.55z
	 M5.9,10.11c-2.33,0-4.21-1.89-4.21-4.21S3.57,1.69,5.9,1.69s4.21,1.89,4.21,4.21S8.22,10.11,5.9,10.11z"/>
</svg>
