<?xml version="1.0" encoding="utf-8"?>
<!-- Generator: Adobe Illustrator 24.3.0, SVG Export Plug-In . SVG Version: 6.00 Build 0)  -->
<svg version="1.1" id="Layer_1" xmlns="http://www.w3.org/2000/svg" xmlns:xlink="http://www.w3.org/1999/xlink" x="0px" y="0px"
	 viewBox="0 0 24 24" style="enable-background:new 0 0 24 24;" xml:space="preserve">
<style type="text/css">
	.st0{fill-rule:evenodd;clip-rule:evenodd;fill:#444444;}
</style>
<g id="_x34_.-Icons_x2F_cart">
	<path id="icon" class="st0" d="M7,19c-1.1,0-1.99,0.9-1.99,2S5.9,23,7,23s2-0.9,2-2S8.1,19,7,19z M1,4c0,0.55,0.45,1,1,1h1
		l3.6,7.59l-1.35,2.44C4.52,16.37,5.48,18,7,18h11c0.55,0,1-0.45,1-1s-0.45-1-1-1H7l1.1-2h7.45c0.75,0,1.41-0.41,1.75-1.03
		l3.58-6.49C21.25,5.82,20.77,5,20.01,5H5.21L4.54,3.57C4.38,3.22,4.02,3,3.64,3H2C1.45,3,1,3.45,1,4z M17,19
		c-1.1,0-1.99,0.9-1.99,2s0.89,2,1.99,2s2-0.9,2-2S18.1,19,17,19z"/>
</g>
</svg>
