<?xml version="1.0" encoding="utf-8"?>
<!-- Generator: Adobe Illustrator 24.3.0, SVG Export Plug-In . SVG Version: 6.00 Build 0)  -->
<svg version="1.1" id="Layer_1" xmlns="http://www.w3.org/2000/svg" xmlns:xlink="http://www.w3.org/1999/xlink" x="0px" y="0px"
	 viewBox="0 0 64 64" style="enable-background:new 0 0 64 64;" xml:space="preserve">
<style type="text/css">
	.st0{fill:#3C3B37;}
</style>
<desc>A solid styled icon from Orion Icon Library.</desc>
<path class="st0" d="M53.12,48.88L36.24,32l16.88-16.88c1.15-1.19,1.12-3.09-0.07-4.24c-1.16-1.12-3.01-1.12-4.17,0L32,27.76
	L15.12,10.88c-1.17-1.17-3.07-1.17-4.24,0s-1.17,3.07,0,4.24L27.76,32L10.88,48.88c-1.15,1.19-1.12,3.09,0.07,4.24
	c1.16,1.12,3.01,1.12,4.17,0L32,36.24l16.88,16.88c1.17,1.17,3.07,1.17,4.24,0S54.29,50.05,53.12,48.88
	C53.12,48.88,53.12,48.88,53.12,48.88z"/>
</svg>
