<?xml version="1.0" encoding="utf-8"?>
<!-- Generator: Adobe Illustrator 24.3.0, SVG Export Plug-In . SVG Version: 6.00 Build 0)  -->
<svg version="1.1" id="Layer_1" xmlns="http://www.w3.org/2000/svg" xmlns:xlink="http://www.w3.org/1999/xlink" x="0px" y="0px"
	 viewBox="0 0 215 50" style="enable-background:new 0 0 215 50;" xml:space="preserve">
<style type="text/css">
	.st0{fill:#FFFFFF;}
</style>
<g>
	<path class="st0" d="M4.4,13.7c0.7,0.5,1.5,0.7,2.3,0.7c0.6,0,1.3-0.1,1.8-0.4l18-11.4c-0.9-0.5-1.8-1.1-2.4-1.9L8.7,10.6L6,12.3
		C4.5,13.1,4.4,13.7,4.4,13.7z"/>
	<path class="st0" d="M9.4,16.2c-2.5,1.4-6.8,0.5-6.7-1.6V46c0,3.3,4.6,4.3,8.4,2.2l21.7-13.7v-33L9.4,16.2z"/>
</g>
<g>
	<path class="st0" d="M69.3,9.2h21.4v5.2H75.2v8.3h14.7v5.2H75.2v8.4h15.5v5.2H69.3V9.2z"/>
	<path class="st0" d="M99.4,40.3c-1.8-1.1-3.2-2.6-4.3-4.4s-1.6-4-1.6-6.2s0.5-4.4,1.6-6.2c1-1.9,2.5-3.4,4.3-4.4s3.8-1.6,6-1.6
		c1.5,0,2.9,0.2,4.1,0.8c1.2,0.5,2.3,1.2,3.1,2.1V8.7h5.7v32.7H113v-2.6c-0.9,1-1.9,1.8-3.2,2.3c-1.3,0.5-2.7,0.8-4.2,0.8
		C103.2,41.9,101.2,41.4,99.4,40.3z M100.3,33.3c0.6,1.1,1.3,1.9,2.4,2.5s2.2,0.9,3.4,0.9s2.4-0.3,3.4-0.9s1.8-1.5,2.3-2.5
		c0.6-1.1,0.8-2.3,0.8-3.6s-0.3-2.6-0.8-3.6s-1.3-1.9-2.4-2.5s-2.1-0.9-3.4-0.9c-1.3,0-2.4,0.3-3.4,0.9c-1,0.6-1.8,1.5-2.4,2.5
		c-0.6,1.1-0.8,2.3-0.8,3.6C99.5,31,99.8,32.2,100.3,33.3z"/>
	<path class="st0" d="M124,9c0.6-0.6,1.4-0.9,2.4-0.9c1,0,1.8,0.3,2.4,0.9s0.9,1.4,0.9,2.4c0,1-0.3,1.8-0.8,2.4s-1.4,0.9-2.4,0.9
		c-1,0-1.8-0.3-2.4-0.9c-0.6-0.6-0.9-1.4-0.9-2.4C123.2,10.3,123.4,9.5,124,9z M123.6,17.9h5.7v23.5h-5.7
		C123.6,41.4,123.6,17.9,123.6,17.9z"/>
	<path class="st0" d="M139.1,39.5c-1.5-1.5-2.2-3.5-2.2-6.2V22.9h-4.1v-5.1h0.4c1.1,0,2.1-0.3,2.7-0.9c0.6-0.6,0.9-1.5,0.9-2.6v-1.8
		h5.7v5.4h5.4v5.1h-5.4V33c0,2.5,1.3,3.7,4,3.7c0.5,0,1,0,1.5-0.1v4.9c-0.9,0.1-1.9,0.2-2.8,0.2C142.6,41.6,140.5,40.9,139.1,39.5z"
		/>
	<path class="st0" d="M152.8,9c0.6-0.6,1.4-0.9,2.4-0.9c1,0,1.8,0.3,2.4,0.9s0.9,1.4,0.9,2.4c0,1-0.3,1.8-0.8,2.4s-1.4,0.9-2.4,0.9
		c-1,0-1.8-0.3-2.4-0.9c-0.6-0.6-0.9-1.4-0.9-2.4C151.9,10.3,152.2,9.5,152.8,9z M152.4,17.9h5.7v23.5h-5.7V17.9z"/>
	<path class="st0" d="M168.5,40.3c-1.9-1.1-3.4-2.5-4.5-4.4s-1.7-4-1.7-6.3c0-2.3,0.6-4.4,1.6-6.3c1.1-1.9,2.6-3.3,4.5-4.4
		c1.9-1.1,4-1.6,6.3-1.6c2.3,0,4.4,0.5,6.2,1.6s3.4,2.5,4.5,4.4c1.1,1.9,1.7,4,1.7,6.3c0,2.3-0.6,4.4-1.7,6.3
		c-1.1,1.9-2.6,3.3-4.5,4.4c-1.9,1-4,1.6-6.2,1.6C172.5,41.9,170.4,41.4,168.5,40.3z M170,34.7c1.2,1.3,2.8,2,4.7,2
		c1.2,0,2.4-0.3,3.3-0.9s1.8-1.5,2.3-2.5c0.6-1.1,0.8-2.3,0.8-3.6c0-1.3-0.3-2.5-0.8-3.6s-1.3-1.9-2.3-2.5c-1-0.6-2.1-0.9-3.3-0.9
		c-1.3,0-2.4,0.3-3.4,0.9s-1.8,1.5-2.3,2.5s-0.8,2.3-0.8,3.6C168.2,31.7,168.8,33.4,170,34.7z"/>
	<path class="st0" d="M191.4,17.9h5.3v2.9c0.6-1.1,1.5-1.9,2.7-2.5c1.2-0.6,2.5-0.9,4-0.9c1.7,0,3.2,0.4,4.6,1.1s2.4,1.8,3.2,3.2
		c0.8,1.4,1.1,2.9,1.1,4.6v15.1h-5.7V27.6c0-1.5-0.4-2.8-1.3-3.7s-2-1.4-3.4-1.4s-2.6,0.5-3.4,1.4s-1.3,2.1-1.3,3.7v13.8h-5.7
		L191.4,17.9L191.4,17.9z"/>
</g>
</svg>
