<?xml version="1.0" encoding="utf-8"?>
<!-- Generator: Adobe Illustrator 24.3.0, SVG Export Plug-In . SVG Version: 6.00 Build 0)  -->
<svg version="1.1" id="Layer_1" xmlns="http://www.w3.org/2000/svg" xmlns:xlink="http://www.w3.org/1999/xlink" x="0px" y="0px"
	 viewBox="0 0 215 50" style="enable-background:new 0 0 215 50;" xml:space="preserve">
<style type="text/css">
	.st0{fill:#E95352;}
	.st1{fill:#8B837E;}
</style>
<g>
	<path class="st0" d="M4.41,13.72c0.68,0.49,1.51,0.73,2.34,0.67c0.64,0.02,1.27-0.12,1.84-0.42L26.58,2.59
		c-0.93-0.48-1.75-1.13-2.43-1.92L8.67,10.62L6,12.3C4.49,13.13,4.41,13.72,4.41,13.72z"/>
	<path class="st0" d="M9.43,16.23c-2.51,1.42-6.78,0.5-6.69-1.59V46c0,3.35,4.6,4.35,8.36,2.17l21.75-13.72V1.42L9.43,16.23z"/>
</g>
<g>
	<path class="st1" d="M69.3,9.18h21.4v5.19H75.18v8.26h14.66v5.19H75.18v8.39H90.7v5.19H69.3V9.18z"/>
	<path class="st1" d="M99.41,40.28c-1.8-1.08-3.22-2.56-4.26-4.43c-1.04-1.87-1.56-3.95-1.56-6.23c0-2.28,0.52-4.35,1.56-6.23
		c1.04-1.87,2.46-3.35,4.28-4.43c1.82-1.08,3.82-1.62,6.01-1.62c1.5,0,2.87,0.25,4.11,0.76c1.24,0.5,2.28,1.22,3.11,2.14V8.66h5.66
		v32.73h-5.36v-2.59c-0.87,1.01-1.95,1.78-3.24,2.31c-1.3,0.53-2.71,0.8-4.24,0.8C103.24,41.9,101.21,41.36,99.41,40.28z
		 M100.32,33.28c0.56,1.08,1.35,1.92,2.36,2.53c1.01,0.61,2.15,0.91,3.42,0.91c1.27,0,2.4-0.3,3.39-0.91
		c0.99-0.61,1.77-1.45,2.33-2.53c0.56-1.08,0.84-2.3,0.84-3.65c0-1.35-0.28-2.57-0.84-3.65c-0.56-1.08-1.35-1.92-2.36-2.53
		c-1.01-0.61-2.13-0.91-3.37-0.91c-1.27,0-2.41,0.31-3.42,0.93c-1.01,0.62-1.79,1.47-2.36,2.55c-0.56,1.08-0.84,2.29-0.84,3.61
		C99.48,30.98,99.76,32.2,100.32,33.28z"/>
	<path class="st1" d="M124.03,8.96c0.58-0.58,1.37-0.87,2.38-0.87c1.04,0,1.84,0.29,2.42,0.87c0.58,0.58,0.86,1.38,0.86,2.42
		c0,1.01-0.28,1.8-0.84,2.38c-0.56,0.58-1.38,0.86-2.44,0.86c-1.01,0-1.8-0.29-2.38-0.86c-0.58-0.58-0.87-1.37-0.87-2.38
		C123.17,10.34,123.45,9.54,124.03,8.96z M123.6,17.87h5.66v23.52h-5.66V17.87z"/>
	<path class="st1" d="M139.05,39.46c-1.46-1.45-2.18-3.51-2.18-6.16V22.93h-4.06v-5.06h0.43c1.15,0,2.05-0.3,2.68-0.91
		c0.63-0.61,0.95-1.48,0.95-2.64v-1.82h5.66v5.36h5.4v5.06h-5.4V33c0,2.45,1.33,3.67,3.98,3.67c0.46,0,0.97-0.04,1.51-0.13v4.89
		c-0.92,0.14-1.86,0.21-2.81,0.21C142.56,41.64,140.51,40.92,139.05,39.46z"/>
	<path class="st1" d="M152.78,8.96c0.58-0.58,1.37-0.87,2.38-0.87c1.04,0,1.84,0.29,2.42,0.87c0.58,0.58,0.86,1.38,0.86,2.42
		c0,1.01-0.28,1.8-0.84,2.38c-0.56,0.58-1.38,0.86-2.44,0.86c-1.01,0-1.8-0.29-2.38-0.86c-0.58-0.58-0.87-1.37-0.87-2.38
		C151.92,10.34,152.2,9.54,152.78,8.96z M152.35,17.87h5.66v23.52h-5.66V17.87z"/>
	<path class="st1" d="M168.47,40.31c-1.9-1.07-3.41-2.54-4.52-4.41c-1.11-1.87-1.67-3.96-1.67-6.27c0-2.3,0.55-4.39,1.64-6.27
		c1.1-1.87,2.59-3.34,4.5-4.41c1.9-1.07,4.01-1.6,6.31-1.6c2.28,0,4.36,0.53,6.25,1.6c1.89,1.07,3.39,2.54,4.49,4.41
		c1.11,1.87,1.67,3.96,1.67,6.27c0,2.33-0.56,4.44-1.67,6.31c-1.11,1.88-2.61,3.34-4.52,4.39c-1.9,1.05-3.98,1.58-6.23,1.58
		C172.47,41.9,170.38,41.37,168.47,40.31z M170.01,34.71c1.22,1.34,2.8,2.01,4.73,2.01c1.24,0,2.35-0.3,3.33-0.91
		c0.98-0.61,1.75-1.45,2.31-2.53c0.56-1.08,0.84-2.3,0.84-3.65c0-1.32-0.28-2.53-0.84-3.61c-0.56-1.08-1.33-1.93-2.31-2.55
		c-0.98-0.62-2.09-0.93-3.33-0.93c-1.27,0-2.4,0.31-3.39,0.93c-0.99,0.62-1.77,1.46-2.33,2.53c-0.56,1.07-0.84,2.28-0.84,3.63
		C168.17,31.67,168.78,33.37,170.01,34.71z"/>
	<path class="st1" d="M191.43,17.87h5.32v2.9c0.61-1.09,1.49-1.94,2.66-2.53c1.16-0.59,2.5-0.89,4-0.89c1.7,0,3.23,0.37,4.58,1.12
		c1.35,0.75,2.41,1.8,3.16,3.16c0.75,1.35,1.12,2.9,1.12,4.62v15.13h-5.66V27.59c0-1.53-0.44-2.75-1.32-3.67
		c-0.88-0.92-2.03-1.38-3.44-1.38s-2.56,0.46-3.44,1.38c-0.88,0.92-1.32,2.15-1.32,3.67v13.79h-5.66V17.87z"/>
</g>
</svg>
